<svg width="16" height="16" viewBox="0 0 16 16" fill="none" xmlns="http://www.w3.org/2000/svg">
<path fill-rule="evenodd" clip-rule="evenodd" d="M14.6667 8.69265C14.6667 12.3573 11.6959 15.3282 8.03116 15.3282C4.36645 15.3282 1.39561 12.3573 1.39561 8.69265C1.39561 5.02795 4.36645 2.05713 8.03116 2.05713C11.6959 2.05713 14.6667 5.02795 14.6667 8.69265Z" fill="#141414" fill-opacity="0.08"/>
<path d="M7.969 14.6638C11.6416 14.6638 14.6187 11.6866 14.6187 8.0141C14.6187 4.34156 11.6416 1.36438 7.969 1.36438C4.29645 1.36438 1.31926 4.34156 1.31926 8.0141C1.31926 11.6866 4.29645 14.6638 7.969 14.6638Z" fill="#EE3F38"/>
<path fill-rule="evenodd" clip-rule="evenodd" d="M8.00008 13.5554C11.0683 13.5554 13.5556 11.0681 13.5556 7.99994C13.5556 4.93174 11.0683 2.44447 8.00008 2.44447C4.93187 2.44447 2.44459 4.93174 2.44459 7.99994C2.44459 11.0681 4.93187 13.5554 8.00008 13.5554ZM14.6667 7.99994C14.6667 11.6818 11.6819 14.6665 8.00008 14.6665C4.31823 14.6665 1.3335 11.6818 1.3335 7.99994C1.3335 4.3181 4.31823 1.33337 8.00008 1.33337C11.6819 1.33337 14.6667 4.3181 14.6667 7.99994Z" fill="#D7312A"/>
<path fill-rule="evenodd" clip-rule="evenodd" d="M10.3455 5.84702L10.8147 6.31622C10.9628 6.4643 10.9628 6.70438 10.8147 6.85245L9.30608 8.36078L10.8147 9.8693C10.9628 10.0174 10.9628 10.2575 10.8147 10.4055L10.3455 10.8747C10.1974 11.0228 9.95731 11.0228 9.80924 10.8747L8.30032 9.36559L6.79293 10.8742C6.64485 11.0223 6.40477 11.0223 6.25669 10.8742L5.78749 10.405C5.63941 10.2569 5.63941 10.0168 5.78749 9.86875L7.29456 8.36078L5.78749 6.853C5.63941 6.70492 5.63941 6.46485 5.78749 6.31677L6.25669 5.84757C6.40477 5.69949 6.64485 5.69949 6.79293 5.84757L8.30032 7.35503L9.80924 5.84702C9.95731 5.69894 10.1974 5.69894 10.3455 5.84702Z" fill="#737A87"/>
<path fill-rule="evenodd" clip-rule="evenodd" d="M10.0137 5.51523L10.4829 5.98443C10.631 6.13251 10.631 6.37259 10.4829 6.52067L8.97432 8.029L10.4829 9.53751C10.631 9.68559 10.631 9.92567 10.4829 10.0737L10.0137 10.5429C9.86564 10.691 9.62556 10.691 9.47748 10.5429L7.96856 9.03381L6.46117 10.5424C6.31309 10.6905 6.07301 10.6905 5.92494 10.5424L5.45573 10.0732C5.30766 9.92512 5.30766 9.68504 5.45573 9.53697L6.9628 8.029L5.45573 6.52121C5.30766 6.37314 5.30766 6.13306 5.45573 5.98498L5.92494 5.51578C6.07301 5.3677 6.31309 5.3677 6.46117 5.51578L7.96856 7.02324L9.47748 5.51523C9.62556 5.36716 9.86564 5.36716 10.0137 5.51523Z" fill="white"/>
</svg>
